<?xml version="1.0" encoding="UTF-8"?>
<svg width="522px" height="146px" viewBox="0 0 522 146" version="1.1" xmlns="http://www.w3.org/2000/svg" xmlns:xlink="http://www.w3.org/1999/xlink">
    <!-- Generator: sketchtool 52.1 (67048) - http://www.bohemiancoding.com/sketch -->
    <title>DCD3906E-0370-474C-BCA7-4E4C682BF068invsion-</title>
    <desc>Created with sketchtool.</desc>
    <defs>
        <polygon id="path-1" points="0.306482759 0.573466667 42.5404138 0.573466667 42.5404138 22.908 0.306482759 22.908"></polygon>
        <polygon id="path-3" points="0.36496 0.573466667 35.74904 0.573466667 35.74904 22.908 0.36496 22.908"></polygon>
    </defs>
    <g id="ASSETS---BRANDING" stroke="none" stroke-width="1" fill="none" fill-rule="evenodd">
        <g id="*GUAVUS-/-LOGO-/-BLACK-/-A-THALES-COMPANY" transform="translate(-139.000000, -583.000000)">
            <g id="*GUAVUS-/-LOGO-/-BLACK-/-A-THALES-COMPANY-BLACK-ALT" transform="translate(139.000000, 583.000000)">
                <g>
                    <path d="M238,78.4892638 C238,83.1840491 234.192061,87 229.503834,87 C224.807939,87 221,83.1840491 221,78.4892638 C221,73.8067485 224.807939,70 229.503834,70 C234.192061,70 238,73.8067485 238,78.4892638" id="Fill-1" fill="#1A1919"></path>
                    <path d="M99,2.66538335 C100.210135,2.44562371 101.583842,2.27927787 103.128694,2.16787195 C104.670518,2.05799213 105.989701,2 107.090787,2 C108.299407,2 109.674629,2.05799213 111.216452,2.16787195 C112.756761,2.27927787 114.131983,2.44562371 115.345147,2.66538335 L115.345147,49.4100897 C115.345147,54.7346826 115.838894,59.1420842 116.832446,62.638399 C117.821455,66.1301354 119.30724,68.8740787 121.286771,70.8687026 C123.269332,72.8679049 125.689601,74.2536115 128.553637,75.0258225 C131.413129,75.8071901 134.714873,76.1948216 138.458869,76.1948216 C144.068804,76.1948216 148.857848,75.5828521 152.818426,74.3619652 L152.818426,2.66538335 C154.030075,2.44562371 155.379549,2.27927787 156.865334,2.16787195 C158.351119,2.05799213 159.699078,2 160.909213,2 C162.119347,2 163.470336,2.05799213 164.954606,2.16787195 C166.441906,2.27927787 167.788351,2.44562371 169,2.66538335 L169,85.3438427 C165.143927,86.4548497 160.548747,87.5048124 155.215976,88.5028875 C149.872604,89.5024886 144.34294,90 138.623956,90 C133.229088,90 128.138647,89.5284324 123.352633,88.5898757 C118.566619,87.6467405 114.354624,85.7314743 110.72422,82.847129 C107.090787,79.965836 104.228266,75.9170699 102.138171,70.7038829 C100.046562,65.492222 99,58.6171028 99,50.0739469 L99,2.66538335" id="Fill-2" fill="#1A1919"></path>
                    <path d="M266,2.66023384 C267.541876,2.44217495 269.141421,2.2771165 270.800152,2.16657276 C272.452812,2.05754332 273.940055,2 275.26188,2 C276.694489,2 278.268235,2.05754332 279.977046,2.16657276 C281.687376,2.2771165 283.148819,2.44217495 284.364412,2.66023384 L314.414303,72.4829906 L344.632647,2.66023384 C345.845205,2.44217495 347.223181,2.2771165 348.766575,2.16657276 C350.308451,2.05754332 351.797211,2 353.232856,2 C354.446932,2 355.824908,2.05754332 357.366784,2.16657276 C358.910177,2.2771165 360.455089,2.44217495 362,2.66023384 L322.02504,87.3382519 C320.587878,87.5593393 319.155269,87.7228835 317.72266,87.8334272 C316.287015,87.9424567 314.96519,88 313.752632,88 C312.538556,88 311.242531,87.9424567 309.864555,87.8334272 C308.488096,87.7228835 307.134402,87.5593393 305.811059,87.3382519 L266,2.66023384" id="Fill-3" fill="#1A1919"></path>
                    <path d="M373,2.66538335 C374.207184,2.44562371 375.58401,2.27927787 377.122904,2.16787195 C378.663313,2.05799213 379.984096,2 381.088283,2 C382.298496,2 383.672293,2.05799213 385.217245,2.16787195 C386.754625,2.27927787 388.129936,2.44562371 389.341664,2.66538335 L389.341664,49.4100897 C389.341664,54.7346826 389.836958,59.1420842 390.82906,62.638399 C391.821162,66.1301354 393.307043,68.8740787 395.285189,70.8687026 C397.270908,72.8679049 399.688305,74.2536115 402.549497,75.0258225 C405.413718,75.8071901 408.717191,76.1948216 412.458401,76.1948216 C418.07173,76.1948216 422.85654,75.5828521 426.820405,74.3619652 L426.820405,2.66538335 C428.033647,2.44562371 429.381694,2.27927787 430.866061,2.16787195 C432.350427,2.05799213 433.69696,2 434.914746,2 C436.12193,2 437.473007,2.05799213 438.957373,2.16787195 C440.443254,2.27927787 441.788272,2.44562371 443,2.66538335 L443,85.3438427 C439.14822,86.4548497 434.552743,87.5048124 429.216596,88.5028875 C423.874391,89.5024886 418.347398,90 412.62047,90 C407.23131,90 402.139024,89.5284324 397.34967,88.5898757 C392.563345,87.6467405 388.352591,85.7314743 384.720437,82.847129 C381.088283,79.965836 378.227091,75.9170699 376.135346,70.7038829 C374.043601,65.492222 373,58.6171028 373,50.0739469 L373,2.66538335" id="Fill-4" fill="#1A1919"></path>
                    <path d="M465.822618,72.5995831 C468.814231,73.8159702 472.109276,74.7799569 475.710801,75.4991458 C479.309276,76.2168142 482.883355,76.5756483 486.431512,76.5756483 C488.98094,76.5756483 491.417535,76.3034817 493.742821,75.7485051 C496.072681,75.1965695 498.089962,74.3663853 499.808386,73.2609936 C501.526811,72.1571224 502.911309,70.8038918 503.966455,69.2013018 C505.017027,67.5987119 505.5446,65.8030205 505.5446,63.8127071 C505.5446,61.6049646 505.128335,59.7819045 504.294282,58.3435268 C503.461753,56.9097106 502.357814,55.6918031 500.971792,54.6974066 C499.584244,53.7045307 497.984752,52.8484983 496.153494,52.1308299 C494.325286,51.4116411 492.353748,50.719821 490.252605,50.05689 L484.435578,47.9023644 C477.342313,45.2506407 472.191614,42.2689719 468.977382,38.9543171 C465.764676,35.6381419 464.159085,31.163358 464.159085,25.5269245 C464.159085,18.014214 466.844219,12.0493559 472.220584,7.62778898 C477.592376,3.21078348 485.487675,1 495.901906,1 C500.224651,1 504.465057,1.41205112 508.618551,2.24527625 C512.775095,3.07089896 516.399492,4.03944716 519.506989,5.14179793 C519.278272,7.35562237 518.866582,9.56336488 518.258196,11.7711074 C517.648285,13.9849318 516.902668,16.0284621 516.016773,17.9032186 C513.578653,17.0198175 510.669377,16.1653056 507.288945,15.336642 C503.905464,14.5064578 500.281067,14.0913657 496.400508,14.0913657 C492.300381,14.0913657 488.67446,14.812075 485.516645,16.2474118 C482.358831,17.6857895 480.776112,20.223477 480.776112,23.8726381 C480.776112,25.7504356 481.16493,27.3515051 481.944091,28.677367 C482.717154,30.0017084 483.76925,31.1375098 485.100381,32.0756483 C486.431512,33.0168278 487.948666,33.8150818 489.671665,34.4764923 C491.38399,35.1424642 493.245743,35.8053952 495.240152,36.4668056 L502.552986,38.9543171 C505.209149,39.8392387 507.729606,40.8883726 510.114358,42.1032391 C512.496061,43.3211467 514.546887,44.8355486 516.265311,46.6601292 C517.980686,48.4831893 519.365184,50.6939727 520.417281,53.2894386 C521.473952,55.886425 522,59.0079783 522,62.6540985 C522,66.7426795 521.167471,70.4739468 519.506989,73.8418184 C517.841931,77.2142515 515.487675,80.0864455 512.439644,82.4584002 C509.396188,84.8364369 505.710801,86.6838248 501.389581,88.0112072 C497.063787,89.3385895 492.300381,90 487.09479,90 C481.774841,90 477.122745,89.6426863 473.132402,88.921977 C469.146633,88.2027881 465.429225,87.2388014 462,86.0224143 C462.216518,83.8131513 462.690724,81.5780401 463.413469,79.3109987 C464.12859,77.0469983 464.930623,74.8103666 465.822618,72.5995831" id="Fill-5" fill="#1A1919"></path>
                    <g id="Group-9" fill="#1A1919">
                        <path d="M277.794049,86.0731034 C276.243541,86.290069 274.635098,86.4554483 272.97482,86.5662069 C271.309967,86.6754483 269.820443,86.7331034 268.486426,86.7331034 C267.048738,86.7331034 265.469262,86.6754483 263.751049,86.5662069 C262.035885,86.4554483 260.567705,86.290069 259.348033,86.0731034 L229.156574,16.1131034 L198.798934,86.0731034 C197.582311,86.290069 196.197984,86.4554483 194.645951,86.5662069 C193.095443,86.6754483 191.598295,86.7331034 190.162131,86.7331034 C188.93941,86.7331034 187.555082,86.6754483 186.004574,86.5662069 C184.454066,86.4554483 182.903557,86.290069 181.353049,86.0731034 L221.513803,1.23048276 C222.953016,1.00744828 224.393754,0.843586207 225.834492,0.732827586 C227.27523,0.623586207 228.606197,0.567448276 229.82282,0.567448276 C231.040967,0.567448276 232.341443,0.623586207 233.727295,0.732827586 C235.116197,0.843586207 236.466984,1.00744828 237.797951,1.23048276 L277.794049,86.0731034" id="Fill-6"></path>
                        <path d="M51.9321148,74.9896552 C49.3281148,75.4296552 46.5869016,75.6526897 43.7069508,75.6526897 C39.8268689,75.6526897 36.2837213,75.1565517 33.0683607,74.1627586 C29.853,73.172 27.0584262,71.544 24.678541,69.2848276 C22.294082,67.0241379 20.4417049,64.1307586 19.1122623,60.6001379 C17.7812951,57.074069 17.1165738,52.8288276 17.1165738,47.8674483 C17.1165738,42.9045517 17.7233607,38.3862069 18.9445574,34.3048276 C20.1627049,30.2264828 21.9601967,26.6973793 24.3446557,23.7190345 C26.7260656,20.7422069 29.7462787,18.4284138 33.4007213,16.7731034 C37.0582131,15.1208276 41.3224918,14.2924138 46.1981311,14.2924138 C47.4178033,14.2924138 48.4972131,14.3227586 49.4394098,14.3758621 C50.3785574,14.4335172 51.3222787,14.4866207 52.2644754,14.5427586 C53.2066721,14.5973793 54.2022295,14.7066207 55.2572459,14.8735172 C56.2680492,15.0297931 57.5182131,15.268 58.9970656,15.582069 L58.9970656,73.5391724 C56.8214754,74.0762759 54.472082,74.5602759 51.9321148,74.9896552 Z M62.1529672,1.55972414 C57.7179344,0.898206897 52.4032131,0.567448276 46.1981311,0.567448276 C39.1057377,0.567448276 32.7070328,1.6977931 27.0065902,3.95544828 C21.297,6.21765517 16.4518525,9.41448276 12.462,13.5489655 C8.47367213,17.6834483 5.40009836,22.6205517 3.23822951,28.3511724 C1.07940984,34.0848276 0,40.3707586 0,47.2044138 C0,55.1426207 1.1632623,61.7881379 3.48978689,67.1348966 C5.81631148,72.4846897 8.94629508,76.8103448 12.8782131,80.1164138 C16.8101311,83.424 21.3793279,85.7681379 26.590377,87.1442759 C31.7953279,88.5234483 37.2792787,89.2137931 43.0407049,89.2137931 C46.254541,89.2137931 49.1619344,89.0484138 51.7659344,88.7176552 C54.3074262,88.3929655 56.7178033,87.9605517 58.9970656,87.4295172 L58.9970656,90.9328276 C58.9970656,96.2264828 58.4985246,100.605241 57.499918,104.081241 C56.5028361,107.554207 55.0056885,110.282207 53.0145738,112.265241 C51.0188852,114.252828 48.5825902,115.630483 45.7026393,116.398207 C42.8211639,117.173517 39.499082,117.560414 35.7302951,117.560414 C20.0132951,117.487586 9.86409836,111.194069 9.86409836,111.194069 C9.29085246,112.281931 8.72370492,113.524552 8.1687541,114.91131 C7.61685246,116.298069 7.15642623,117.572552 6.79204918,118.727172 C6.42614754,119.88331 6.0754918,121.19269 5.73093443,122.64469 C5.39095082,124.09669 5.14091803,125.431862 4.98540984,126.657793 C8.86701639,127.762345 13.4910984,128.803172 18.8622295,129.796966 C24.239459,130.790759 29.8072623,131.286897 35.5641148,131.286897 C40.9931803,131.286897 46.1158033,130.815034 50.9350328,129.880414 C55.7542623,128.94731 59.992623,127.040138 63.6485902,124.172552 C67.3045574,121.308 70.1875574,117.282759 72.2899672,112.101379 C74.3954262,106.921517 75.448918,100.084828 75.448918,91.5928276 L75.448918,4.37117241 C71.0154098,3.15737931 66.5819016,2.21972414 62.1529672,1.55972414 Z" id="Fill-8"></path>
                    </g>
                    <path d="M234.868682,128.078306 C233.981169,128.95582 233.322597,130.473187 233.322597,132.057587 C233.322597,133.303778 233.783449,134.350396 234.409316,135.022243 C234.999504,135.66362 235.757681,136.035344 236.744797,136.035344 C238.191278,136.035344 239.178394,135.392444 239.770069,134.787629 C240.691774,133.809567 241.185332,132.2922 241.185332,130.91042 C241.185332,129.729738 240.789891,128.617611 240.098612,127.910725 C239.606541,127.404936 238.815659,126.966179 237.632309,126.966179 C236.31665,126.966179 235.427651,127.539001 234.868682,128.078306 Z M241.777007,124.370201 L245,124.370201 L243.290387,138.562767 L240.065907,138.562767 L240.230922,137.078915 C239.770069,137.586228 239.080278,138.192566 238.388999,138.495734 C237.697721,138.798903 236.744797,139 235.855798,139 C233.816155,139 232.598612,138.12401 231.908821,137.45064 C230.823588,136.372029 230,134.482937 230,132.325716 C230,130.170018 230.723984,127.708105 232.402379,125.988117 C233.816155,124.539305 235.527255,124 237.467294,124 C238.388999,124 239.2111,124.169104 240.000496,124.604814 C240.559465,124.907983 241.118434,125.381779 241.579286,126.023157 L241.777007,124.370201 Z" id="Fill-10" fill="#1A1919"></path>
                    <polyline id="Fill-11" fill="#1A1919" points="271.501237 119.165854 269.167653 138 265.765953 138 268.101044 119.165854 263 119.165854 263.400732 116 277 116 276.600775 119.165854 271.501237 119.165854"></polyline>
                    <path d="M281.946607,114 L285.155168,114 L283.747723,125.797161 C284.008197,125.487199 284.468465,125.076499 285.122609,124.73399 C285.90847,124.320191 286.695811,124.185357 287.480191,124.185357 C289.15107,124.185357 290.164845,124.800632 290.755351,125.419007 C291.476093,126.173765 292,127.408964 292,128.91693 C292,129.431467 291.934882,130.049842 291.705487,131.901866 L290.853028,139 L287.642987,139 L288.528005,131.557808 C288.690801,130.288513 288.690801,129.773976 288.690801,129.637592 C288.690801,129.054863 288.594604,128.300105 288.069217,127.785568 C287.642987,127.373318 287.021403,127.202839 286.432377,127.202839 C285.286885,127.202839 284.631261,127.717376 284.369308,127.991693 C283.518329,128.847189 283.223816,130.324158 283.026981,132.038249 L282.208561,139 L279,139 L281.946607,114" id="Fill-12" fill="#1A1919"></path>
                    <path d="M303.870168,128.078306 C302.981169,128.95582 302.324083,130.473187 302.324083,132.057587 C302.324083,133.303778 302.783449,134.350396 303.409316,135.022243 C304.000991,135.66362 304.757681,136.035344 305.74331,136.035344 C307.191278,136.035344 308.176908,135.392444 308.770069,134.787629 C309.693261,133.809567 310.185332,132.2922 310.185332,130.91042 C310.185332,129.729738 309.789891,128.617611 309.100099,127.910725 C308.605055,127.404936 307.817146,126.966179 306.632309,126.966179 C305.315164,126.966179 304.429138,127.539001 303.870168,128.078306 Z M310.777007,124.370201 L314,124.370201 L312.290387,138.562767 L309.065907,138.562767 L309.230922,137.078915 C308.770069,137.586228 308.080278,138.192566 307.388999,138.495734 C306.699207,138.798903 305.74331,139 304.855798,139 C302.817641,139 301.598612,138.12401 300.907334,137.45064 C299.823588,136.372029 299,134.482937 299,132.325716 C299,130.170018 299.723984,127.708105 301.400892,125.988117 C302.817641,124.539305 304.527255,124 306.468781,124 C307.388999,124 308.212587,124.169104 309.000496,124.604814 C309.560951,124.907983 310.118434,125.381779 310.579286,126.023157 L310.777007,124.370201 Z" id="Fill-13" fill="#1A1919"></path>
                    <polyline id="Fill-14" fill="#1A1919" points="326 114 323.126923 139 320 139 322.871635 114 326 114"></polyline>
                    <path d="M341.722841,129.562157 C341.621549,128.853748 341.275601,128.04479 340.862645,127.607556 C340.379564,127.101767 339.586376,126.830591 338.758905,126.830591 C337.895592,126.830591 337.035396,127.101767 336.310775,127.674589 C335.724844,128.145338 335.240205,128.887264 334.965939,129.562157 L341.722841,129.562157 Z M344.378228,135.325411 C343.656723,136.507617 342.65472,137.417124 341.690116,137.988422 C340.862645,138.460695 339.552093,139 337.621327,139 C335.827694,139 334.275601,138.52925 332.965049,137.21298 C331.829029,136.100853 331,134.382389 331,132.156612 C331,129.729738 331.930321,127.607556 333.516696,126.090189 C334.931656,124.740402 336.655165,124 338.827471,124 C340.172306,124 341.861532,124.268129 343.207925,125.651432 C344.31122,126.763559 345,128.550579 345,130.607252 C345,131.044485 344.965717,131.61883 344.828584,132.258684 L334.447017,132.258684 C334.447017,133.271785 334.828807,134.415905 335.517587,135.124314 C335.966385,135.596587 336.759573,136.035344 337.895592,136.035344 C338.68878,136.035344 339.552093,135.799208 340.208148,135.392444 C340.794078,135.022243 341.380009,134.382389 341.722841,133.776051 L344.378228,135.325411 Z" id="Fill-15" fill="#1A1919"></path>
                    <path d="M357.541319,128.111822 C357.378967,127.708105 357.15226,127.438452 356.893374,127.235832 C356.570133,126.966179 356.27907,126.897623 355.923651,126.897623 C355.598947,126.897623 355.145532,126.966179 354.82229,127.304388 C354.693579,127.438452 354.531227,127.708105 354.531227,128.04479 C354.531227,128.382998 354.659939,128.651127 354.918824,128.853748 C355.145532,129.056368 355.404417,129.156917 356.245429,129.595673 L357.15226,130.067946 C358.252157,130.640768 358.73775,131.146557 358.867925,131.282145 C359.287699,131.754418 359.903466,132.663924 359.903466,134.214808 C359.903466,135.899756 359.224806,136.978367 358.544683,137.65326 C357.670031,138.495734 356.439959,139 354.724294,139 C353.91546,139 352.686851,138.865935 351.682024,138.090494 C351.55185,137.988422 350.485593,137.147471 350,135.496039 L352.751207,134.214808 C352.879918,134.75259 353.170981,135.293419 353.495685,135.596587 C353.818926,135.899756 354.272342,136.100853 354.82229,136.100853 C355.372239,136.100853 355.793477,135.933272 356.08454,135.66362 C356.439959,135.360451 356.602311,134.956734 356.602311,134.415905 C356.602311,133.977148 356.4736,133.573431 356.148896,133.235222 C355.793477,132.865021 355.307884,132.663924 354.854468,132.427788 L353.981278,131.953991 C353.560041,131.719378 352.84774,131.314138 352.426503,130.875381 C351.844376,130.302559 351.487495,129.493601 351.487495,128.414991 C351.487495,127.101767 352.005265,126.023157 352.717566,125.279707 C353.722393,124.236137 354.952465,124 356.08454,124 C356.959193,124 357.702209,124.169104 358.446687,124.67337 C359.094632,125.112127 359.644581,125.819013 360,126.493906 L357.541319,128.111822" id="Fill-16" fill="#1A1919"></path>
                    <path d="M389.546402,128.786715 C389.165253,128.414991 388.607705,127.910725 387.804458,127.503961 C387.073661,127.13376 386.446814,126.966179 385.645142,126.966179 C384.005573,126.966179 382.715653,127.572517 381.915556,128.382998 C381.009935,129.292505 380.521686,130.540219 380.521686,131.886959 C380.521686,133.235222 381.079234,134.350396 381.775382,134.988726 C382.509329,135.66362 383.657499,136.035344 384.807245,136.035344 C385.156894,136.035344 386.131815,136.000305 387.177611,135.528032 C387.42331,135.392444 388.152532,135.057282 388.851829,134.313833 L388.398231,138.023461 C387.491035,138.596283 386.306639,139 384.041798,139 C382.12503,139 380.452387,138.52925 379.056942,137.180987 C378.115096,136.303473 377,134.685558 377,132.022547 C377,129.156917 378.326145,127.269348 379.441241,126.190737 C381.184759,124.539305 383.240126,124 385.435668,124 C387.525685,124 388.921129,124.539305 390,125.212675 L389.546402,128.786715" id="Fill-17" fill="#1A1919"></path>
                    <path d="M405.374278,134.685558 C406.167131,133.809567 406.6957,132.528336 406.6957,131.010969 C406.6957,130.235527 406.531455,129.021328 405.607207,128.04479 C404.912901,127.304388 404.020008,126.966179 402.962871,126.966179 C401.475712,126.966179 400.452917,127.539001 399.824308,128.145338 C398.865718,129.056368 398.3043,130.404631 398.3043,131.853443 C398.3043,132.932054 398.667131,134.010664 399.328588,134.787629 C399.658571,135.157831 400.582819,136.035344 402.302907,136.035344 C403.425742,136.035344 404.482879,135.66362 405.374278,134.685558 Z M408.115668,125.887569 C409.008561,126.830591 410,128.45003 410,130.808349 C410,132.427788 409.637169,134.787629 407.588592,136.810786 C405.90434,138.460695 404.120048,139 401.872885,139 C400.087099,139 398.435696,138.664839 396.915688,137.078915 C395.892893,136.000305 395,134.415905 395,132.124619 C395,129.661182 395.95859,127.607556 397.411408,126.190737 C398.931415,124.706886 400.782899,124 403.159964,124 C404.615767,124 406.531455,124.268129 408.115668,125.887569 Z" id="Fill-18" fill="#1A1919"></path>
                    <g id="Group-22" transform="translate(416.000000, 123.000000)">
                        <mask id="mask-2" fill="white">
                            <use xlink:href="#path-1"></use>
                        </mask>
                        <g id="Clip-20"></g>
                        <path d="M2.05131034,0.946066667 L5.34068966,0.946066667 L5.1737931,2.26933333 C5.54248276,1.86146667 6.01282759,1.4214 6.54993103,1.11626667 C7.28731034,0.706866667 8.05958621,0.573466667 8.86524138,0.573466667 C9.60413793,0.573466667 10.2095172,0.674666667 10.8786207,1.11626667 C11.5856552,1.55633333 11.9892414,2.1344 12.2562759,2.6772 C12.5931034,2.20186667 13.0953103,1.65906667 13.8675862,1.1822 C14.6064828,0.743666667 15.2786207,0.573466667 16.2511724,0.573466667 C17.7623448,0.573466667 18.8365517,1.01353333 19.5754483,1.72653333 C20.7513103,2.81366667 20.8514483,4.33933333 20.8514483,5.15353333 C20.8514483,5.90026667 20.7513103,6.78346667 20.5828966,8.03773333 L19.7104828,15.2306 L16.4211034,15.2306 L17.292,8.03773333 C17.3602759,7.42593333 17.4953103,6.68073333 17.4953103,6.0352 C17.4953103,5.25473333 17.3253793,4.54326667 16.9248276,4.1354 C16.6213793,3.795 16.0175172,3.55886667 15.4804138,3.55886667 C15.0434483,3.55886667 14.5063448,3.66006667 13.9343448,4.16913333 C13.0634483,4.98486667 12.7615172,6.23913333 12.5582069,7.86753333 L11.6524138,15.2306 L8.36151724,15.2306 L9.26882759,7.7326 C9.40386207,6.71293333 9.43572414,6.27133333 9.43572414,5.934 C9.43572414,5.4924 9.40386207,4.64446667 8.86524138,4.10013333 C8.56331034,3.795 8.09296552,3.55886667 7.4542069,3.55886667 C6.71682759,3.55886667 6.14634483,3.83026667 5.71089655,4.27186667 C4.90524138,5.08606667 4.67006897,6.4078 4.50165517,7.86753333 L3.59586207,15.2306 L0.306482759,15.2306 L2.05131034,0.946066667" id="Fill-19" fill="#1A1919" mask="url(#mask-2)"></path>
                        <path d="M32.6722759,4.61073333 C31.6982069,5.5614 31.1277241,7.15606667 31.1277241,8.75073333 C31.1277241,9.5634 31.2612414,10.718 32.0668966,11.5659333 C32.6722759,12.2099333 33.6114483,12.6868 34.753931,12.6868 C35.9282759,12.6868 36.8006897,12.2774 37.5411034,11.5322 C38.4453793,10.6152667 39.1508966,9.08806667 39.1508966,7.52866667 C39.1508966,6.34033333 38.7473103,5.3222 38.1449655,4.64446667 C37.437931,3.864 36.5655172,3.55886667 35.4913103,3.55886667 C34.4504828,3.55886667 33.5446897,3.7628 32.6722759,4.61073333 Z M29.5816552,23 L26.2907586,23 L28.9777931,0.946066667 L32.2686897,0.946066667 L32.0668966,2.507 C32.5372414,1.86146667 33.0743448,1.45513333 33.7464828,1.15 C34.584,0.743666667 35.3911724,0.573466667 36.2635862,0.573466667 C38.0433103,0.573466667 39.7213793,1.31866667 40.7637241,2.40426667 C41.8030345,3.48986667 42.5404138,5.18573333 42.5404138,7.25726667 C42.5404138,9.7336 41.5344828,12.144 40.1583448,13.6359333 C38.9491034,14.9254667 37.437931,15.7059333 35.457931,15.7059333 C34.282069,15.7059333 33.1744828,15.4682667 32.2686897,14.9254667 C31.6648276,14.5528667 31.1277241,14.0422667 30.7226207,13.5669333 L29.5816552,23 Z" id="Fill-21" fill="#1A1919" mask="url(#mask-2)"></path>
                    </g>
                    <path d="M469.868199,128.078306 C468.982261,128.95582 468.323754,130.473187 468.323754,132.057587 C468.323754,133.303778 468.78456,134.350396 469.408879,135.022243 C470.000495,135.66362 470.75711,136.035344 471.744128,136.035344 C473.191953,136.035344 474.177485,135.392444 474.769101,134.787629 C475.690714,133.809567 476.184224,132.2922 476.184224,130.91042 C476.184224,129.729738 475.790308,128.617611 475.099098,127.910725 C474.605589,127.404936 473.814785,126.966179 472.631553,126.966179 C471.316024,126.966179 470.4286,127.539001 469.868199,128.078306 Z M476.777326,124.370201 L480,124.370201 L478.289069,138.562767 L475.064909,138.562767 L475.229908,137.078915 C474.769101,137.586228 474.079378,138.192566 473.386681,138.495734 C472.698444,138.798903 471.744128,139 470.855218,139 C468.815776,139 467.599841,138.12401 466.908631,137.45064 C465.823506,136.372029 465,134.482937 465,132.325716 C465,130.170018 465.723912,127.708105 467.400654,125.988117 C468.815776,124.539305 470.526707,124 472.466554,124 C473.386681,124 474.210187,124.169104 474.999505,124.604814 C475.559905,124.907983 476.117332,125.381779 476.578139,126.023157 L476.777326,124.370201 Z" id="Fill-23" fill="#1A1919"></path>
                    <g id="Group-27" transform="translate(486.000000, 123.000000)">
                        <mask id="mask-4" fill="white">
                            <use xlink:href="#path-3"></use>
                        </mask>
                        <g id="Clip-25"></g>
                        <path d="M2.11448,0.946066667 L5.40984,0.946066667 L5.24264,2.2356 C5.6804,1.6928 6.11664,1.38766667 6.65472,1.11626667 C7.49528,0.706866667 8.23704,0.573466667 9.07608,0.573466667 C10.79216,0.573466667 11.83488,1.1822 12.43984,1.794 C13.18008,2.54073333 13.71816,3.69533333 13.71816,5.18573333 C13.71816,5.73006667 13.65128,6.34033333 13.41568,8.20793333 L12.54168,15.2306 L9.2448,15.2306 L10.15224,7.86753333 C10.32096,6.61173333 10.32096,6.10266667 10.32096,5.96773333 C10.32096,5.3912 10.21912,4.64446667 9.68256,4.1354 C9.2448,3.72753333 8.6064,3.55886667 7.99992,3.55886667 C6.82344,3.55886667 6.15008,4.06793333 5.88104,4.33933333 C5.00856,5.18573333 4.70456,6.647 4.5024,8.34286667 L3.66184,15.2306 L0.36496,15.2306 L2.11448,0.946066667" id="Fill-24" fill="#1A1919" mask="url(#mask-4)"></path>
                        <polyline id="Fill-26" fill="#1A1919" mask="url(#mask-4)" points="24.81872 12.5840667 19.94256 0.946066667 23.84288 0.946066667 27.03944 8.9884 31.984 0.946066667 35.74904 0.946066667 21.7924 23 18.09272 23 24.81872 12.5840667"></polyline>
                    </g>
                </g>
            </g>
        </g>
    </g>
</svg>