<?xml version="1.0" encoding="UTF-8"?>
<svg width="506px" height="142px" viewBox="0 0 506 142" version="1.1" xmlns="http://www.w3.org/2000/svg" xmlns:xlink="http://www.w3.org/1999/xlink">
    <!-- Generator: sketchtool 52.1 (67048) - http://www.bohemiancoding.com/sketch -->
    <title>1BB3D574-4800-4902-9971-A69CB88BF3BD</title>
    <desc>Created with sketchtool.</desc>
    <g id="ASSETS---BRANDING" stroke="none" stroke-width="1" fill="none" fill-rule="evenodd">
        <g id="*GUAVUS-/-LOGO-/-WHITE-/-A-THALES-COMPANY" transform="translate(-61.000000, -198.000000)">
            <g transform="translate(61.000000, 198.000000)" id="Group">
                <g>
                    <g>
                        <path d="M230.572147,76.1760955 C230.576273,79.4887669 228.588399,82.4774866 225.536056,83.7477337 C222.483714,85.0179807 218.968483,84.3194045 216.630552,81.977957 C214.292621,79.6365095 213.592768,76.1136622 214.857542,73.0531572 C216.122315,69.9926522 219.102443,67.9976786 222.407413,67.9990807 C226.91118,68.0060003 230.561526,71.661837 230.572147,76.1760955 Z" id="Path" fill="#F48220"></path>
                        <g fill="#FFFFFF">
                            <path d="M95.5424831,2.40806818 C96.8720225,2.17626058 98.2129225,2.01550317 99.5595001,1.92647727 C101.059159,1.81991667 102.344365,1.76592727 103.415117,1.76450909 C104.591681,1.76450909 105.929818,1.81848864 107.429526,1.92644773 C108.776568,2.015892 110.117951,2.17664659 111.448061,2.40803864 L111.448061,47.657508 C111.346896,51.971645 111.833789,56.2794311 112.895251,60.4615477 C113.638129,63.4447879 115.130405,66.1878083 117.230027,68.4294989 C119.185667,70.3800159 121.627152,71.7694808 124.300348,72.4532648 C127.449895,73.2524782 130.690695,73.6326845 133.939244,73.5840875 C138.659101,73.6822195 143.367738,73.0848242 147.914345,71.8110352 L147.914345,2.40806818 C149.217711,2.17947756 150.532018,2.01873177 151.851981,1.92647727 C153.297924,1.81993636 154.60959,1.76595682 155.786979,1.76453864 C156.963558,1.76453864 158.27881,1.81993636 159.723377,1.92647727 C161.042925,2.01872799 162.356816,2.17947394 163.659761,2.40806818 L163.659761,82.4411795 C159.907813,83.5153439 155.437021,84.5345636 150.247385,85.4988386 C144.920912,86.4771044 139.515955,86.9622162 134.100821,86.9480432 C129.114916,86.9722131 124.138281,86.514914 119.239869,85.5824818 C114.756481,84.7491721 110.540335,82.8424314 106.950293,80.0245534 C103.181374,76.9116609 100.299331,72.856449 98.5955958,68.2689784 C96.5601972,63.2250769 95.5424782,56.568678 95.5424389,48.2997818 L95.5424831,2.40806818 Z" id="Path"></path>
                            <path d="M257.81958,2.40806818 C259.316654,2.19486818 260.870211,2.03433788 262.480251,1.92647727 C264.084984,1.81993636 265.529905,1.76595682 266.815012,1.76453864 C268.204443,1.76453864 269.733637,1.81993636 271.392279,1.92647727 C272.820758,2.00764279 274.243623,2.16842164 275.654277,2.40806818 L304.837728,70.5236364 L334.185172,2.40806818 C335.513864,2.17641638 336.853892,2.01565967 338.199595,1.92647727 C339.69667,1.81993636 341.142504,1.76595682 342.537098,1.76453864 C343.716433,1.76453864 345.054569,1.81851818 346.551507,1.92647727 C348.051215,2.03439697 349.550918,2.19492727 351.050616,2.40806818 L312.228373,85.0156818 C310.83373,85.2315015 309.440821,85.3925242 308.049647,85.49875 C306.654984,85.6040352 305.373365,85.6606886 304.194177,85.6606886 C303.014989,85.6606886 301.757497,85.6040352 300.419356,85.49875 C299.08121,85.3908303 297.769087,85.2298076 296.482987,85.0156818 L257.81958,2.40806818 Z" id="Path"></path>
                            <path d="M361.209142,2.40806818 C362.536946,2.17640568 363.876097,2.01564861 365.220927,1.92647727 C366.720615,1.81993636 368.006685,1.76595682 369.079138,1.76453864 C370.255712,1.76453864 371.594772,1.81851818 373.096317,1.92647727 C374.441985,2.01598884 375.781991,2.17674347 377.110725,2.40806818 L377.110725,47.657508 C377.010582,51.9715173 377.496995,56.279104 378.55656,60.4615477 C379.302615,63.4441273 380.795532,66.1866011 382.894063,68.4294989 C384.849117,70.3794273 387.289599,71.7688338 389.961775,72.4532648 C393.112287,73.2521344 396.353918,73.6323336 399.603323,73.5840875 C404.323631,73.6821236 409.032711,73.0847313 413.57981,71.8110352 L413.57981,2.40806818 C414.882766,2.17955013 416.196653,2.01880465 417.516193,1.92647727 C418.959237,1.81993636 420.27224,1.76595682 421.4552,1.76453864 C422.629008,1.76453864 423.943037,1.81993636 425.388872,1.92647727 C426.707514,2.01880096 428.020498,2.17954676 429.322543,2.40806818 L429.322543,82.4411795 C425.574742,83.5153439 421.104407,84.5345636 415.911538,85.4988386 C410.584179,86.4774146 405.178279,86.9625282 399.762218,86.9480432 C394.776793,86.9718263 389.80066,86.5145302 384.902667,85.5824818 C380.419617,84.7494167 376.203861,82.8426393 372.614461,80.0245534 C368.845946,76.911286 365.963992,72.8561909 364.259779,68.2689784 C362.22436,63.2250769 361.207506,56.568678 361.209216,48.2997818 L361.209142,2.40806818 Z" id="Path"></path>
                            <path d="M450.708555,70.0420455 C457.052188,72.557947 463.807708,73.8680088 470.629779,73.9052614 C473.009041,73.9167579 475.381345,73.6467857 477.697477,73.1009455 C479.774327,72.6364767 481.756689,71.8196001 483.558927,70.6856045 C485.161518,69.6693475 486.531448,68.3247144 487.578715,66.7400455 C488.593838,65.1851789 489.124295,63.3626592 489.10253,61.5045909 C489.173306,59.6578736 488.757267,57.8250748 487.896327,56.1908409 C487.089784,54.7941671 485.994649,53.5864747 484.684349,52.6487398 C483.240737,51.6273858 481.676121,50.7897585 480.026449,50.1551034 C478.260143,49.4560727 476.353912,48.7841943 474.32376,48.140517 L468.699362,46.0476057 C461.844348,43.4703754 456.864252,40.5719663 453.759074,37.3523784 C450.529261,33.8031618 448.85179,29.1054377 449.101188,24.3080602 C448.830922,17.6062573 451.716165,11.1662248 456.893026,6.91621705 C462.08675,2.62542917 469.71713,0.479114394 479.784165,0.477272727 C483.910999,0.470972541 488.028234,0.875974547 492.075112,1.68630227 C495.645812,2.3718965 499.16303,3.31254075 502.599858,4.50103864 C502.375742,6.67798121 501.972293,8.83260269 501.39364,10.9428489 C500.843064,12.987311 500.117902,14.9804651 499.226185,16.9002318 C496.460088,15.9208246 493.64434,15.0884544 490.790693,14.4065955 C487.344004,13.5793296 483.810068,13.1733661 480.266021,13.1975659 C476.649113,13.127785 473.059868,13.8421864 469.743988,15.2918659 C466.79246,16.5236554 464.950928,19.5023263 465.164112,22.6997977 C465.114788,24.3293913 465.504517,25.9421922 466.292305,27.3685557 C467.058123,28.6776107 468.099068,29.8038754 469.342839,30.6691227 C470.712672,31.6285163 472.196939,32.412256 473.76102,33.0020614 C475.416905,33.6498159 477.215473,34.2934341 479.143208,34.9358114 L486.21092,37.352467 C488.720487,38.1878947 491.163985,39.2108617 493.520843,40.4127557 C495.74245,41.5336857 497.753761,43.0315285 499.465743,44.8399795 C501.19122,46.7183969 502.552568,48.902499 503.480151,51.2805636 C504.567351,54.1870767 505.086595,57.2760802 505.009581,60.3792045 C505.055957,64.1407198 504.231093,67.8617356 502.599858,71.2496273 C500.990028,74.5259564 498.653461,77.3895364 495.769108,79.6210511 C492.56876,82.060275 488.948249,83.8889188 485.088137,85.0157852 C480.60447,86.3481685 475.946901,86.9994934 471.270618,86.948058 C466.749565,86.998504 462.232918,86.6481139 457.773453,85.9009818 C454.116928,85.2553864 450.518761,84.3131665 447.014441,83.0836159 C447.240431,80.8683171 447.69795,78.6829388 448.379465,76.5634511 C449.07152,74.3639595 449.847883,72.1901576 450.708555,70.0420455 Z" id="Path"></path>
                            <path d="M269.020109,83.7311784 C267.520558,83.941611 265.967924,84.1017523 264.362208,84.2116023 C262.752218,84.3167545 261.311793,84.373408 260.022052,84.373408 C258.632784,84.373408 257.106183,84.3167545 255.444918,84.2116023 C254.018325,84.1293508 252.597287,83.9689701 251.188167,83.7311784 L222.000884,15.6129955 L192.654649,83.7311784 C191.325738,83.9610454 189.985788,84.1214038 188.64024,84.2116023 C187.141775,84.3167545 185.6946,84.373408 184.305331,84.373408 C183.123314,84.373408 181.785232,84.3167545 180.286914,84.2116023 C178.787216,84.1035545 177.287975,83.9434133 175.78919,83.7311784 L214.614174,1.12226477 C216.004691,0.906307197 217.396637,0.744831439 218.790012,0.6378375 C220.183427,0.5325375 221.468628,0.479015909 222.645615,0.477272727 C223.823584,0.477272727 225.081858,0.530794318 226.420436,0.6378375 C227.762571,0.745752273 229.069835,0.906302273 230.355449,1.12226477 L269.020109,83.7311784 Z" id="Path"></path>
                            <path d="M60.5569628,1.44340909 C55.4460763,0.745354473 50.2911431,0.422449763 45.1333154,0.477272727 C38.7961501,0.383952244 32.4994387,1.50370811 26.58108,3.77645114 C21.2767173,5.83599678 16.4801872,9.02239459 12.5212036,13.1166114 C8.59542842,17.2577386 5.56063697,22.1633788 3.60516648,27.5290909 C1.4659843,33.4087939 0.405141522,39.6277595 0.473837209,45.8858443 C0.273911373,52.5165657 1.42171917,59.1187569 3.84745058,65.2908705 C5.84899342,70.1556761 8.95704134,74.4843448 12.9236791,77.9315977 C16.7750334,81.1785479 21.3047832,83.5170057 26.1785014,84.774325 C31.3692395,86.137429 36.7154566,86.8146885 42.0813228,86.7888966 C44.9000188,86.8053935 47.7169564,86.6440518 50.5154299,86.3058284 C52.8656797,86.0080573 55.1990765,85.5892033 57.5063556,85.0509295 L57.5063556,88.4620409 C57.6068296,92.7757369 57.1199523,97.0830189 56.0591801,101.26484 C55.3155092,104.248062 53.8228006,106.990996 51.7230184,109.232776 C49.7682611,111.184075 47.3270643,112.574053 44.6539351,113.257798 C41.5042638,114.056333 38.2635534,114.436524 35.0150398,114.388606 C26.2895535,114.486263 17.6832597,112.352771 10.0091071,108.189659 C9.40124684,109.366918 8.85439439,110.57483 8.37073067,111.808578 C7.83765358,113.159367 7.39431843,114.397637 7.04072523,115.523388 C6.68533887,116.650059 6.34746169,117.923956 6.01359334,119.337957 C5.7073095,120.627433 5.46689387,121.93174 5.29328488,123.245786 C9.04521262,124.321241 13.5164663,125.340461 18.7070458,126.303445 C24.0335989,127.281088 29.4384935,127.766195 34.8535956,127.75265 C39.8391922,127.776494 44.8154593,127.318249 49.7132645,126.384282 C54.1967659,125.552209 58.4130674,123.645858 62.0027677,120.827727 C65.7714194,117.715135 68.6533843,113.660386 70.3573023,109.073408 C72.3928287,104.030885 73.4105968,97.3745307 73.4106067,89.1043443 L73.4106067,4.18116477 C69.1845675,3.01162637 64.8923012,2.09739718 60.5569628,1.44340909 Z M50.6770509,72.9390807 C48.0495748,73.3776127 45.3898961,73.5933787 42.7262592,73.5840875 C39.2446742,73.6225795 35.7772446,73.1339702 32.4412042,72.1347795 C29.4044028,71.2093939 26.6266735,69.5825243 24.3314591,67.3850375 C21.91754,65.0145101 20.0765775,62.1219441 18.9494183,58.9286409 C17.5738362,54.944463 16.9209159,50.7456385 17.0215508,46.5308364 C16.970027,42.0667325 17.5649935,37.618754 18.7878563,33.3259091 C19.8466771,29.5843493 21.6196354,26.0842194 24.0084677,23.0195091 C26.3444753,20.0952979 29.3467777,17.7759812 32.7629576,16.2565545 C36.6663189,14.5729716 40.8848919,13.7492855 45.1333154,13.8412136 C46.3126308,13.8412136 47.3572768,13.8682034 48.2672534,13.922183 C49.1759772,13.9789693 50.0873244,14.0302307 50.9988043,14.0841216 C51.9087809,14.1381504 52.8731076,14.2456515 53.8917846,14.406625 C54.8691598,14.5591682 56.0767483,14.7911591 57.5064146,15.0962455 L57.5064146,71.5276352 C55.4036174,72.049792 53.1325669,72.5220761 50.6770509,72.9390807 Z" id="Shape" fill-rule="nonzero"></path>
                        </g>
                    </g>
                    <g transform="translate(222.000000, 108.000000)" fill="#FFFFFF">
                        <path d="M12.6301569,11.3572713 L15.9460703,11.3572713 L14.1864475,25.6685365 L10.8705341,25.6685365 L11.039389,24.1729504 C10.5050517,24.7667937 9.86173851,25.2515548 9.14468228,25.6006843 C8.31650666,25.9357863 7.4322,26.1087574 6.53937223,26.1102852 C5.03205979,26.1568911 3.56922629,25.5936182 2.47908456,24.546847 C1.17784576,23.1484674 0.473240975,21.2939084 0.516100104,19.3801626 C0.484010092,17.0085663 1.36962852,14.7170678 2.98632622,12.9885617 C4.37013151,11.6214584 6.25808064,10.8949206 8.19691689,10.9833748 C9.10353922,10.9588415 10.0011325,11.1696627 10.802948,11.5954635 C11.4436977,11.943392 11.9985974,12.4312805 12.4267805,13.0231974 L12.6301569,11.3572713 Z M5.52412373,15.0969461 C4.49647594,16.1760132 3.92634648,17.6139652 3.93406218,19.10732 C3.91410783,20.2111629 4.31335002,21.2812111 5.05062363,22.0999261 C5.66793973,22.7711288 6.54323952,23.1425286 7.45260145,23.119113 C8.61703889,23.1408132 9.74043938,22.6870998 10.5658889,21.8617339 C11.5163569,20.7847888 12.0348647,19.3916367 12.0208665,17.9524287 C12.0529418,16.8365928 11.6526448,15.7518091 10.9043051,14.9266061 C10.2223409,14.2760268 9.30603542,13.9325307 8.36653699,13.9752713 C7.30924232,13.9598876 6.28832254,14.3627635 5.52412373,15.0969461 Z" id="Shape" fill-rule="nonzero"></path>
                        <polygon id="Path" points="40.9242528 6.25842435 38.555325 25.6685217 35.1036213 25.6685217 37.4725345 6.25840957 32.2949791 6.25840957 32.7016582 2.99440957 46.5070454 2.99440957 46.1003809 6.25840957"></polygon>
                        <path d="M50.9086187,0.886734783 L54.2252531,0.886734783 L52.7695544,12.58 C53.174769,12.144308 53.6565815,11.7875259 54.190761,11.5275965 C54.9484342,11.1538404 55.7839995,10.9672535 56.6279372,10.98336 C57.8741801,10.9114185 59.0957586,11.3529776 60.0106715,12.2061035 C60.8748726,13.1484361 61.3366429,14.3937184 61.2967648,15.6743843 C61.2514729,16.6654135 61.1497731,17.6530276 60.9921637,18.6323843 L60.1127202,25.6685513 L56.7960858,25.6685513 L57.7100213,18.2916896 C57.8095028,17.6620673 57.8661593,17.0263666 57.8795973,16.3890052 C57.9264647,15.7138867 57.6934778,15.0493309 57.2358149,14.5527243 C56.761635,14.1583059 56.1596573,13.9527896 55.5444404,13.9752861 C54.7588775,13.9400294 53.9917876,14.2211501 53.4133515,14.7562809 C52.5251178,15.9043771 52.0373457,17.3140455 52.0251948,18.7680739 L51.1788601,25.6685217 L47.8635648,25.6685513 L50.9086187,0.886734783 Z" id="Path"></path>
                        <path d="M79.2695355,11.3572713 L82.5847279,11.3572713 L80.8258261,25.6685217 L77.5091917,25.6685217 L77.6787677,24.1729357 C77.1446975,24.7667643 76.5016225,25.2515304 75.784782,25.6006696 C74.9561022,25.9357693 74.0713244,26.1087368 73.1780298,26.1102704 C71.670954,26.1567438 70.2083934,25.593476 69.1184632,24.5468322 C67.8172298,23.1484492 67.1126259,21.2938925 67.1554788,19.3801478 C67.1233887,17.0085515 68.0090072,14.717053 69.6257049,12.988547 C71.0095851,11.6215606 72.8974814,10.8950431 74.8362955,10.98336 C75.7426998,10.9586624 76.6400964,11.169497 77.4415909,11.5954487 C78.0829214,11.9431153 78.6383451,12.4310312 79.0668655,13.0231826 L79.2695355,11.3572713 Z M72.1635024,15.0969461 C71.1353585,16.1757471 70.5649305,17.6138134 70.5727345,19.10732 C70.5531114,20.211103 70.9523036,21.2810311 71.6892812,22.0999261 C72.3069711,22.7710262 73.1824358,23.1423845 74.0919801,23.119113 C75.2565989,23.1406429 76.3801592,22.68697 77.2059886,21.8617339 C78.1559544,20.7845359 78.6741649,19.3914921 78.6602452,17.9524287 C78.6919817,16.8366488 78.2917302,15.7519884 77.5436837,14.9266061 C76.8617988,14.2758993 75.9454373,13.9323823 75.0059156,13.9752713 C73.9485941,13.9597393 72.9276204,14.3626365 72.1635024,15.0969461 Z" id="Shape" fill-rule="nonzero"></path>
                        <polygon id="Path" points="94.0937617 0.886734783 91.0473098 25.6685217 87.7321175 25.6685217 90.777142 0.88672"></polygon>
                        <path d="M111.21724,22.4045217 C110.563317,23.4983658 109.658745,24.4194538 108.578836,25.0910983 C107.364022,25.7876275 105.983808,26.139877 104.585369,26.1102852 C102.876456,26.1921984 101.214142,25.5366155 100.017104,24.3086548 C98.7216919,22.9363199 98.0271828,21.1000552 98.0886263,19.2098078 C98.0498354,16.917682 98.9417209,14.7084921 100.558867,13.0910496 C101.936217,11.7029496 103.818922,10.9413985 105.769458,10.9833748 C107.372248,10.9029119 108.933962,11.5082509 110.06757,12.6493748 C111.265714,14.0293922 111.89477,15.8165512 111.826472,17.6464435 C111.827883,18.2061948 111.771054,18.7645615 111.65691,19.3124435 L101.472788,19.3124435 C101.463185,20.3710979 101.835874,21.3973679 102.521807,22.201113 C103.137683,22.8215325 103.984041,23.1545074 104.855522,23.1192461 C105.655625,23.1145392 106.439414,22.8914949 107.123108,22.4739557 C107.736426,22.0504501 108.245574,21.4920631 108.611856,20.8412313 L111.21724,22.4045217 Z M108.61193,16.5925322 C108.513559,15.8701066 108.220929,15.1883111 107.765536,14.6205322 C107.21097,14.0907342 106.466681,13.8087827 105.701975,13.838813 C104.827539,13.8352952 103.978753,14.1354196 103.299291,14.6883843 C102.715648,15.2091678 102.263511,15.8617915 101.980118,16.5925026 L108.61193,16.5925322 Z" id="Shape" fill-rule="nonzero"></path>
                        <path d="M124.519682,15.1301626 C124.378867,14.7789371 124.144718,14.4733191 123.842791,14.2466652 C123.558847,14.0098405 123.196858,13.8885283 122.828249,13.9066652 C122.406192,13.8858004 121.992855,14.0322493 121.67721,14.3144878 C121.4848,14.5158279 121.375893,14.7831944 121.372609,15.0622809 C121.364023,15.3857316 121.516547,15.6921859 121.779274,15.87936 C122.215647,16.1742736 122.680185,16.4247753 123.166003,16.627153 L124.112988,17.1021035 C124.774407,17.4071085 125.380528,17.8208491 125.906382,18.3262809 C126.63911,19.1311622 127.028167,20.1927618 126.989894,21.2828026 C127.028536,22.5890937 126.511695,23.8501226 125.568687,24.7503739 C124.463646,25.7071243 123.031606,26.1947722 121.57522,26.1102557 C120.445314,26.1488908 119.332193,25.8275202 118.395112,25.1921226 C117.555825,24.5212517 116.941851,23.6076482 116.63621,22.574847 L119.511673,21.282847 C119.637772,21.8111624 119.907402,22.2939344 120.290525,22.6773791 C120.673184,23.0152844 121.167877,23.1970764 121.677254,23.18698 C122.156307,23.2092627 122.626495,23.0518119 122.996427,22.7452313 C123.366596,22.4371175 123.567923,21.969857 123.53819,21.4878522 C123.550588,21.0428153 123.379515,20.6123854 123.065411,20.2983104 C122.660205,19.9555155 122.203267,19.6797002 121.711746,19.4812165 L120.797796,19.0062809 C120.21194,18.7155313 119.666111,18.3496479 119.173978,17.917793 C118.509727,17.26892 118.152662,16.3661293 118.192486,15.4362217 C118.183133,14.2522294 118.646337,13.1138237 119.478579,12.2754191 C120.423324,11.3753082 121.696509,10.9076997 122.996383,10.9834191 C123.869803,10.949541 124.732384,11.1869909 125.466609,11.6634191 C126.144693,12.1378574 126.701583,12.7665505 127.091884,13.4982513 L124.519682,15.1301626 Z" id="Path"></path>
                        <path d="M155.146757,15.8101035 C154.653587,15.2937368 154.082869,14.8582492 153.455398,14.5195078 C152.815074,14.1578653 152.091921,13.9702775 151.357359,13.9752713 C150.007017,13.9354776 148.699025,14.4511697 147.736079,15.4030052 C146.845093,16.3602438 146.35965,17.6280905 146.382414,18.9384139 C146.303663,20.0698654 146.716963,21.1800617 147.515445,21.9819331 C148.313927,22.7838046 149.419191,23.1986181 150.545442,23.119113 C151.339688,23.1156391 152.124048,22.9419072 152.846107,22.609527 C153.455188,22.3011473 154.004979,21.8866608 154.469925,21.3853348 L154.030211,25.1243 C152.755249,25.8827048 151.278254,26.2270611 149.801112,26.1103 C148.00356,26.2044755 146.248708,25.5391962 144.961252,24.2754678 C143.60417,22.8964157 142.88081,21.0114411 142.965232,19.0741183 C142.928509,16.8720544 143.783155,14.7493395 145.333439,13.1921183 C146.890016,11.6855715 148.994017,10.8870768 151.153349,10.9833896 C152.719896,10.9334683 154.264978,11.3596269 155.586531,12.206133 L155.146757,15.8101035 Z" id="Path"></path>
                        <path d="M173.388224,12.886 C174.65534,14.221782 175.34811,16.0049599 175.316702,17.849867 C175.370774,20.125133 174.475087,22.3194126 172.846476,23.9014974 C171.290185,25.4297899 169.166512,26.2311992 166.993516,26.1102261 C165.101188,26.240307 163.246874,25.5325144 161.917979,24.1728913 C160.621568,22.8403231 159.914012,21.039394 159.954995,19.176547 C159.904781,16.9528326 160.776076,14.8080351 162.360717,13.2545734 C163.945358,11.7011117 166.101015,10.8785164 168.312674,10.9833157 C170.192785,10.890718 172.028099,11.5787269 173.388224,12.886 Z M170.580303,21.7591722 C171.479085,20.7387197 171.962377,19.4156697 171.933968,18.0534087 C171.963213,16.9484147 171.562692,15.8754609 170.817406,15.0622513 C170.109853,14.3296986 169.12532,13.9343919 168.110077,13.9752122 C166.925259,13.9362446 165.77202,14.3629859 164.895462,15.1647391 C163.884872,16.1416011 163.321573,17.4949313 163.339186,18.9037043 C163.329304,19.9833616 163.701024,21.0315283 164.388206,21.8617043 C165.175228,22.7023496 166.285221,23.1606979 167.43323,23.1190835 C168.62921,23.1472342 169.778107,22.6507948 170.580303,21.7592313 L170.580303,21.7591722 Z" id="Shape" fill-rule="nonzero"></path>
                        <path d="M182.359505,11.3572713 L185.676139,11.3572713 L185.506563,12.6825026 C185.906892,12.2275782 186.375206,11.8379595 186.89472,11.5276113 C187.613202,11.1479013 188.416917,10.9604701 189.228435,10.9833748 C189.945491,10.9448577 190.656279,11.1353711 191.258932,11.5276113 C191.860819,11.9048405 192.342539,12.4473875 192.647088,13.0910496 C193.080286,12.485696 193.63307,11.9765689 194.270921,11.5954635 C194.99466,11.1589624 195.83027,10.9460891 196.673605,10.9833748 C197.898082,10.9094962 199.102029,11.3245884 200.02329,12.1382661 C200.915647,13.0494486 201.38282,14.2972399 201.309383,15.5733452 C201.280354,16.5410739 201.189636,17.50594 201.037788,18.4620148 L200.158329,25.6685365 L196.84171,25.6685365 L197.722595,18.4620148 C197.825176,17.7976672 197.892807,17.1283468 197.925206,16.4568426 C197.979588,15.772013 197.774266,15.0918445 197.350408,14.5527096 C196.957006,14.1795572 196.435756,13.9727908 195.894709,13.9752713 C195.316771,13.9699757 194.759159,14.1892842 194.338419,14.58736 C193.456227,15.6194657 192.965122,16.9313484 192.951704,18.2916748 L192.037769,25.6685365 L188.721134,25.6685365 L189.63507,18.1560148 C189.729955,17.5597407 189.786597,16.9579571 189.804646,16.3543843 C189.853912,15.6911663 189.647615,15.0342877 189.228405,14.5195522 C188.846948,14.1532861 188.334557,13.9570712 187.807199,13.9753157 C187.148109,13.9593161 186.511679,14.217353 186.048282,14.6884583 C185.264641,15.7254208 184.837042,16.9898037 184.829702,18.2917191 L183.915751,25.6685217 L180.600603,25.6685365 L182.359505,11.3572713 Z" id="Path"></path>
                        <path d="M209.435726,33.4525113 L206.120534,33.4525113 L208.826436,11.3572713 L212.143056,11.3572713 L211.940518,12.9207096 C212.371712,12.3222843 212.956189,11.8523496 213.631878,11.560813 C214.421704,11.1730168 215.29057,10.9753167 216.169646,10.9833748 C217.862164,10.9729056 219.49079,11.6320135 220.703434,12.818207 C221.903564,14.145293 222.5462,15.8872903 222.496828,17.6795713 C222.493729,20.0320788 221.639845,22.3033152 220.094114,24.0705217 C218.031884,26.243309 214.782038,26.7713935 212.143115,25.3625217 C211.558141,24.9919042 211.033269,24.5332686 210.586839,24.00264 L209.435726,33.4525113 Z M212.54972,15.0291087 C211.51336,16.1555085 210.954608,17.6432124 210.992002,19.1766061 C210.935317,20.2044139 211.274983,21.2146497 211.94043,21.9974235 C212.651017,22.7284183 213.629379,23.1339827 214.646332,23.119113 C215.703251,23.1491966 216.723614,22.7292163 217.45568,21.9627878 C218.482819,20.8807234 219.063133,19.4475268 219.079513,17.9524287 C219.104119,16.8969017 218.743235,15.8688405 218.064985,15.0623104 C217.379521,14.3174595 216.398882,13.9188525 215.390691,13.9752713 C214.338179,13.9086143 213.306542,14.2912924 212.54972,15.0291087 Z" id="Shape" fill-rule="nonzero"></path>
                        <path d="M240.029766,11.3572713 L243.344944,11.3572713 L241.586042,25.6685217 L238.269422,25.6685217 L238.438984,24.1729357 C237.904913,24.7667643 237.261838,25.2515304 236.544998,25.6006696 C235.716323,25.9357678 234.83155,26.1087353 233.938261,26.1102704 C232.431184,26.1567505 230.96862,25.5934817 229.878694,24.5468322 C228.577455,23.1484526 227.87285,21.2938936 227.915709,19.3801478 C227.883619,17.0085515 228.769238,14.717053 230.385936,12.988547 C231.769816,11.6215606 233.657712,10.8950431 235.596526,10.98336 C236.502935,10.9586639 237.400336,11.1694983 238.201836,11.5954487 C238.843159,11.94312 239.398577,12.4310353 239.827096,13.0231826 L240.029766,11.3572713 Z M232.923718,15.0969461 C231.895575,16.1757471 231.325146,17.6138134 231.33295,19.10732 C231.313325,20.211106 231.712524,21.2810365 232.449512,22.0999261 C233.067196,22.7710255 233.942656,23.1423841 234.852196,23.119113 C236.016815,23.1406429 237.140375,22.68697 237.966205,21.8617339 C238.916176,20.7845396 239.434388,19.3914933 239.420461,17.9524287 C239.452205,16.8366475 239.051953,15.7519843 238.3039,14.9266061 C237.622017,14.2758964 236.705654,13.9323788 235.766132,13.9752713 C234.70881,13.9597393 233.687836,14.3626365 232.923718,15.0969461 Z" id="Shape" fill-rule="nonzero"></path>
                        <path d="M250.218185,11.3572713 L253.533378,11.3572713 L253.365258,12.6492713 C253.747185,12.1709205 254.233436,11.7871465 254.786465,11.5275817 C255.543628,11.1538364 256.378724,10.9672438 257.222199,10.9833452 C258.468905,10.9111593 259.691018,11.3527252 260.606361,12.2060887 C261.469641,13.1215994 261.93225,14.3461384 261.890983,15.6065174 C261.847175,16.6200894 261.745944,17.6303326 261.587779,18.63234 L260.706879,25.668507 L257.391687,25.668507 L258.304195,18.2916452 C258.403668,17.6620222 258.460319,17.0263217 258.473756,16.3889609 C258.521196,15.7140272 258.288716,15.0494278 257.831416,14.55268 C257.357123,14.1584745 256.755233,13.9529864 256.140056,13.9752417 C255.354023,13.9397379 254.586394,14.220866 254.007525,14.7562365 C253.120384,15.9048321 252.633194,17.3142817 252.620811,18.7680296 L251.774402,25.6685513 L248.457768,25.6685513 L250.218185,11.3572713 Z" id="Path"></path>
                        <polygon id="Path" points="272.385577 23.0166252 267.479588 11.3572713 271.404085 11.3572713 274.618685 19.4133643 279.592202 11.3572713 283.383043 11.3572713 269.340494 33.4525113 265.618622 33.4525113"></polygon>
                    </g>
                </g>
            </g>
        </g>
    </g>
</svg>