<svg xmlns="http://www.w3.org/2000/svg" viewBox="0 0 16 16">
  <defs>
    <style>
      .a {
        fill: #25373e;
      }
    </style>
  </defs>
  <title>Ingesting_Default</title>
  <path class="a" d="M16,6.32932H9.97293l2.43572-2.50684a6.25721,6.25721,0,0,0-8.78282-.08889,6.11156,6.11156,0,0,0,0,8.70281,6.24007,6.24007,0,0,0,8.78282,0,5.78985,5.78985,0,0,0,1.81345-4.347H16a8.30342,8.30342,0,0,1-2.34682,5.59148,8.04851,8.04851,0,0,1-11.30744,0A7.858,7.858,0,0,1,2.328,2.498a7.9892,7.9892,0,0,1,11.24521,0L16,0ZM8.60825,4.34892V8.19556l3.16782,1.8826-.65166,1.09516L7.25061,8.87438V4.34892Z"/>
</svg>
